# Blender 3.6.1
# www.blender.org
mtllib Lab3.mtl
o Cube
v 2.482282 2.879463 -2.703959
v 1.050774 2.184694 -2.411603
v 1.094056 2.057172 3.781922
v -2.484399 2.879463 -2.703959
v -1.033145 1.907171 -3.025908
v -1.096174 2.057172 3.781922
v 1.094056 2.879358 -2.703126
v -1.096174 2.879358 -2.703126
v 1.094056 2.881519 -2.720174
v -1.096174 2.881519 -2.720174
v 0.775027 1.757059 -2.747388
v -0.777145 1.757059 -2.747388
v 0.775027 3.179576 -2.747388
v -0.777145 3.179576 -2.747388
v 0.946261 1.866222 -3.224512
v -0.855085 2.080677 -1.993974
v 1.094056 2.879463 -2.747388
v -1.096174 2.879463 -2.747388
v 0.726263 1.912138 -3.489363
v -0.816010 2.206116 -1.962249
v 1.094056 2.879463 -2.747388
v -1.096174 2.879463 -2.747388
v -1.096174 2.057172 3.781922
v 1.094056 2.057172 3.781922
v -1.096174 2.057172 3.781922
v 1.094056 2.057172 3.781922
v -2.137063 2.673725 -0.464725
v 2.134946 2.673725 -0.464725
v 1.094056 2.057172 3.781922
v 1.895802 2.532072 0.510942
v -1.897919 2.532072 0.510942
v -1.096174 2.057172 3.781922
v -1.671410 2.673725 -0.464725
v 1.514129 2.198825 2.806255
v 3.878369 2.673725 -0.464725
v -4.235177 2.673725 -0.464725
v -1.553056 2.198825 2.806254
v 2.060792 2.673725 -0.464725
v 1.094002 2.057172 3.781922
v 1.895757 2.532064 0.510997
v 0.785777 2.057172 3.781922
v -0.787895 2.057172 3.781922
v -1.897874 2.532064 0.510997
v -1.096120 2.057172 3.781922
v -1.096120 3.246976 3.954664
v -0.787895 3.246976 3.954664
v -1.897874 3.721868 0.683740
v 0.785777 3.227492 3.951835
v 1.094002 3.227492 3.951835
v 1.895757 3.702384 0.680911
v 2.134946 2.673725 -0.464725
v 0.252941 2.673725 -0.464725
v 1.333200 2.198825 2.806255
v 1.094056 2.879463 -3.877693
v 1.094056 2.057172 -3.877693
v 0.775027 3.179576 -3.877693
v 0.775027 1.757059 -3.877693
v -1.096174 2.879463 -3.861539
v -1.096174 2.057172 -3.861539
v -0.777145 3.179576 -3.861539
v -0.777145 1.757059 -3.861539
v -1.096174 2.879463 -3.881968
v 1.094056 2.879463 -3.881968
v -0.777145 3.179576 -3.881968
v 0.775027 3.179576 -3.881968
v 1.094056 2.057172 -3.849081
v -1.096174 2.057172 -3.849081
v 0.775027 1.757059 -3.849081
v -0.777145 1.757059 -3.849081
v 0.252941 2.695714 -0.461532
v 1.333200 2.220814 2.809448
v -1.553056 2.220814 2.809447
v 2.060792 2.695714 -0.461533
v 1.895802 2.554061 0.514134
v -1.897919 2.554061 0.514134
v 1.895757 2.554053 0.514190
v -1.897874 2.554053 0.514190
v 2.482282 2.879463 -2.703959
v 0.995407 2.879463 -2.703959
v 2.134963 2.673735 -0.464832
v -2.484399 2.879463 -2.703959
v -2.137080 2.673735 -0.464833
v -0.997525 2.879463 -2.703959
v -1.503646 2.298531 2.119506
v -2.137063 2.673725 -0.464725
v -0.650189 2.673725 -0.464725
v -2.484382 2.879453 -2.703851
v 2.482265 2.879453 -2.703851
v 0.648072 2.673725 -0.464725
v 2.134946 2.673725 -0.464725
v 1.501528 2.298531 2.119507
v 1.369612 2.328948 2.064650
v -0.283297 2.079161 3.785114
v 0.785777 2.057200 3.781926
v -0.787895 2.057200 3.781926
v 0.281180 2.079161 3.785114
v -1.371729 2.328948 2.064650
vn -0.0000 0.9516 -0.3073
vn 0.1253 -0.9919 0.0230
vn -0.0000 1.0000 -0.0000
vn 0.1269 -0.9290 0.3476
vn -0.0000 0.9921 0.1257
vn -0.0000 0.9921 0.1258
vn -0.0000 -0.0000 -1.0000
vn 0.0281 -0.4364 -0.8993
vn 0.5067 0.8316 -0.2273
vn -0.6178 0.3682 -0.6948
vn 0.7721 0.1751 -0.6110
vn -0.9539 -0.3000 -0.0000
vn 0.6852 0.7284 -0.0000
vn -0.6852 0.7284 -0.0000
vn 0.6852 -0.7284 -0.0000
vn -0.0000 -0.7322 0.6811
vn -0.0000 -1.0000 -0.0000
vn -0.0000 -0.9958 -0.0915
vn 0.4660 0.8848 -0.0000
vn -0.0000 0.9896 0.1439
vn -1.0000 -0.0000 -0.0000
vn -0.0000 0.9993 0.0379
vn 0.9505 0.0446 -0.3074
vn -0.0000 0.9896 0.1437
vn -0.9480 0.0457 -0.3151
vn -0.9718 -0.0339 0.2333
vn 0.9480 0.0457 -0.3151
vn -0.0000 -0.1437 0.9896
vn 0.9718 -0.0339 0.2333
vn -0.0000 -0.9896 -0.1437
vn 1.0000 -0.0000 -0.0000
vn 0.6412 -0.6816 0.3527
vn -0.9893 -0.0000 0.1459
vn -0.6852 -0.7284 -0.0000
vn -0.0000 -0.0000 1.0000
vn -0.0000 -0.9275 -0.3739
vn 0.9153 0.3676 -0.1649
vn -0.0000 0.1437 -0.9896
vn -0.9718 0.0339 -0.2333
vn -0.6749 0.1060 -0.7303
vn 0.7783 -0.0903 0.6213
vn -0.7777 -0.0902 0.6221
vn -0.9480 -0.0457 0.3151
vn 0.9891 0.0211 -0.1455
vn -0.0000 0.9958 0.0915
vn -0.0459 0.9906 0.1287
vn 0.5096 -0.8604 -0.0000
vn 0.4430 -0.8963 -0.0215
vn 0.0207 0.9864 0.1631
vn -0.0207 0.9864 0.1631
vn 0.9480 -0.0457 0.3151
vn -0.0000 -0.9998 -0.0206
vn -0.0867 0.9848 -0.1506
vn 0.9908 -0.1037 -0.0868
vn -0.0226 -0.6896 -0.7239
vn -0.1496 -0.9876 -0.0469
vn 0.8784 -0.1597 -0.4504
vn -0.6347 0.6747 -0.3769
vn -0.5096 -0.8604 -0.0000
vn -0.5545 -0.8321 0.0132
vn -0.5542 -0.8324 0.0074
vn -0.6553 0.5531 -0.5144
vn 0.5963 -0.7942 -0.1170
vn -0.0000 -0.9981 -0.0620
vn -0.0000 -0.9977 0.0680
vn -0.0008 0.9896 0.1437
vn 0.6849 -0.5892 0.4286
vn 0.9539 0.3000 -0.0000
vn -0.9233 -0.3842 -0.0000
vn -0.9162 -0.3657 0.1638
vn -0.0971 -0.9909 0.0926
vn -0.0000 -0.1383 0.9904
vn -0.0000 -0.1425 0.9898
vn -0.0030 -0.9896 -0.1438
vn 0.0022 -0.9897 -0.1429
vn 0.7788 -0.0904 0.6207
vn -0.7783 -0.0903 0.6214
vn -0.9480 -0.0457 0.3150
vn -0.9478 -0.0474 0.3153
vn 0.4317 -0.9019 -0.0153
vn 0.4332 -0.9011 -0.0205
vn 0.9476 -0.0468 0.3161
vt 0.562450 0.750000
vt 0.562450 0.837013
vt 0.562450 0.912987
vt 0.375000 0.500000
vt 0.125000 0.750000
vt 0.125000 0.500000
vt 0.375000 0.750000
vt 0.375000 1.000000
vt 0.875000 0.500000
vt 0.625000 0.500000
vt 0.625000 0.250000
vt 0.375000 0.250000
vt 0.000000 0.000000
vt 0.624997 0.249996
vt 0.562453 0.163692
vt 0.519383 0.750000
vt 0.699842 0.500000
vt 0.562453 1.000000
vt 0.624997 1.000000
vt 0.624997 0.750000
vt 0.562450 1.000000
vt 0.448380 1.000000
vt 0.448380 0.750000
vt 0.519381 0.999996
vt 0.375000 0.999994
vt 0.519383 1.000000
vt 0.562450 0.860136
vt 0.418067 0.750000
vt 0.418067 1.000000
vt 0.562450 0.889864
vt 0.375000 0.750006
vt 0.519381 0.750004
vt 0.375000 0.785188
vt 0.375000 0.964812
vt 0.519381 0.999996
vt 0.375000 0.964812
vt 0.375000 0.907216
vt 0.375000 0.842784
vt 0.418067 0.750000
vt 0.375000 0.907216
vt 0.450942 0.983319
vt 0.562453 0.750000
vt 0.625000 0.925158
vt 0.448380 0.064078
vt 0.624997 0.500004
vt 0.448380 0.685922
vt 0.450942 0.766681
vt 0.375000 0.785188
vt 0.450942 0.983319
vt 0.375000 0.000000
vt 0.800158 0.500000
vt 0.625000 0.824842
vt 0.450942 0.766681
vt 0.519383 0.750000
vt 0.418067 1.000000
vt 0.562453 0.586308
s 0
usemtl Material
f 28/1/1 89/2/1 86/3/1
f 2/4/2 6/5/2 5/6/2
f 3/7/3 23/8/3 6/8/3
f 2/4/4 16/6/4 15/4/4
f 4/9/5 7/10/5 1/10/5
f 4/9/6 9/10/6 10/9/6
f 14/11/7 11/4/7 12/12/7
f 4/9/3 17/10/3 18/9/3
f 2/4/8 17/10/8 1/10/8
f 4/11/9 16/12/9 5/12/9
f 19/4/10 16/12/10 20/12/10
f 19/13/11 17/13/11 15/13/11
f 22/13/3 16/13/3 18/13/3
f 21/10/3 18/11/3 17/10/3
f 19/4/12 68/4/12 11/4/12
f 21/10/13 56/10/13 13/10/13
f 14/11/14 58/11/14 22/11/14
f 22/11/15 64/11/15 14/11/15
f 87/14/16 82/15/16 4/11/16
f 30/16/3 29/7/3 26/7/3
f 1/10/17 4/9/17 79/17/17
f 82/18/18 87/19/18 88/20/18
f 26/7/3 23/8/3 24/7/3
f 27/21/17 84/22/17 23/8/17
f 26/7/19 91/23/19 90/1/19
f 43/24/20 32/8/20 44/25/20
f 31/26/21 27/21/21 25/8/21
f 36/21/22 51/1/22 27/21/22
f 52/27/23 71/28/23 53/28/23
f 33/27/24 34/28/24 35/1/24
f 36/21/24 37/29/24 38/30/24
f 30/16/20 39/31/20 29/7/20
f 40/32/25 48/33/25 50/32/25
f 43/24/26 45/25/26 47/24/26
f 44/25/3 25/8/3 26/7/3
f 46/34/24 47/35/24 45/25/24
f 43/35/27 46/36/27 42/36/27
f 42/34/28 45/25/28 44/25/28
f 49/31/24 50/32/24 48/33/24
f 40/32/29 49/31/29 39/31/29
f 39/31/28 48/33/28 41/33/28
f 33/27/3 51/1/3 52/27/3
f 34/28/24 52/27/24 53/28/24
f 34/28/30 51/1/30 35/1/30
f 56/10/7 55/4/7 57/4/7
f 21/13/31 55/13/31 54/13/31
f 19/4/32 57/4/32 55/4/32
f 13/10/21 57/4/21 11/4/21
f 61/12/7 58/11/7 60/11/7
f 20/13/33 58/13/33 59/13/33
f 12/12/34 59/12/34 61/12/34
f 12/12/31 60/11/31 14/11/31
f 64/11/35 63/10/35 65/10/35
f 14/11/17 65/10/17 13/10/17
f 21/10/3 62/11/3 22/11/3
f 13/10/34 63/10/34 21/10/34
f 69/12/35 66/4/35 67/12/35
f 19/4/36 67/12/36 66/4/36
f 12/12/37 67/12/37 20/12/37
f 11/4/3 69/12/3 12/12/3
f 41/33/38 93/37/38 96/38/38
f 30/16/39 71/39/39 74/16/39
f 70/27/30 96/38/30 93/40/30
f 38/30/40 72/29/40 73/30/40
f 30/16/41 76/32/41 40/32/41
f 38/30/28 70/27/28 52/27/28
f 31/26/42 77/24/42 75/26/42
f 42/36/43 97/41/43 77/35/43
f 31/26/44 72/29/44 37/29/44
f 78/10/45 79/17/45 80/42/45
f 81/9/45 82/15/45 83/43/45
f 84/44/46 86/3/46 87/19/46
f 88/45/47 90/1/47 91/23/47
f 2/4/48 91/46/48 24/7/48
f 92/47/49 93/40/49 94/48/49
f 95/36/50 96/38/50 97/49/50
f 40/32/51 92/47/51 94/33/51
f 28/1/3 90/1/3 89/2/3
f 86/3/3 85/21/3 27/21/3
f 86/3/35 27/21/35 28/1/35
f 2/4/52 3/7/52 6/5/52
f 3/7/3 24/7/3 23/8/3
f 2/4/53 5/6/53 16/6/53
f 4/9/5 8/9/5 7/10/5
f 4/9/6 1/10/6 9/10/6
f 14/11/7 13/10/7 11/4/7
f 4/9/3 1/10/3 17/10/3
f 2/4/54 15/4/54 17/10/54
f 4/11/55 18/11/55 16/12/55
f 19/4/56 15/4/56 16/12/56
f 19/13/3 21/13/3 17/13/3
f 22/13/57 20/13/57 16/13/57
f 21/10/3 22/11/3 18/11/3
f 19/4/58 66/4/58 68/4/58
f 21/10/13 54/10/13 56/10/13
f 14/11/14 60/11/14 58/11/14
f 22/11/15 62/11/15 64/11/15
f 5/12/3 6/50/3 23/50/3
f 23/50/59 84/44/59 87/14/59
f 5/12/60 23/50/60 87/14/60
f 82/15/3 81/11/3 4/11/3
f 4/11/61 5/12/61 87/14/61
f 28/1/3 51/1/3 53/39/3
f 28/1/62 53/39/62 30/16/62
f 26/7/63 28/1/63 30/16/63
f 4/9/3 81/9/3 83/51/3
f 79/17/3 78/10/3 1/10/3
f 4/9/3 83/51/3 79/17/3
f 80/42/45 79/52/45 83/43/45
f 80/42/45 83/43/45 82/18/45
f 86/3/45 89/2/45 88/20/45
f 87/19/45 86/3/45 88/20/45
f 88/20/18 80/42/18 82/18/18
f 26/7/3 25/8/3 23/8/3
f 27/21/3 85/21/3 84/22/3
f 23/8/3 25/8/3 27/21/3
f 26/7/3 24/7/3 91/23/3
f 90/1/3 28/1/3 26/7/3
f 43/24/24 31/26/24 32/8/24
f 31/26/30 37/29/30 36/21/30
f 31/26/30 36/21/30 27/21/30
f 25/8/3 32/8/3 31/26/3
f 36/21/64 38/30/64 52/27/64
f 51/1/3 28/1/3 27/21/3
f 36/21/65 52/27/65 51/1/65
f 52/27/23 70/27/23 71/28/23
f 30/16/66 40/32/66 39/31/66
f 40/32/25 41/33/25 48/33/25
f 43/24/26 44/25/26 45/25/26
f 26/7/3 29/7/3 39/31/3
f 41/33/3 42/34/3 44/25/3
f 26/7/3 39/31/3 41/33/3
f 44/25/3 32/8/3 25/8/3
f 26/7/3 41/33/3 44/25/3
f 43/35/27 47/35/27 46/36/27
f 42/34/28 46/34/28 45/25/28
f 40/32/29 50/32/29 49/31/29
f 39/31/28 49/31/28 48/33/28
f 33/27/17 35/1/17 51/1/17
f 34/28/30 33/27/30 52/27/30
f 34/28/30 53/28/30 51/1/30
f 56/10/7 54/10/7 55/4/7
f 21/13/67 19/13/67 55/13/67
f 19/4/68 11/4/68 57/4/68
f 13/10/21 56/10/21 57/4/21
f 61/12/7 59/12/7 58/11/7
f 20/13/69 22/13/69 58/13/69
f 12/12/70 20/12/70 59/12/70
f 12/12/31 61/12/31 60/11/31
f 64/11/35 62/11/35 63/10/35
f 14/11/17 64/11/17 65/10/17
f 21/10/3 63/10/3 62/11/3
f 13/10/34 65/10/34 63/10/34
f 69/12/35 68/4/35 66/4/35
f 19/4/71 20/12/71 67/12/71
f 12/12/13 69/12/13 67/12/13
f 11/4/3 68/4/3 69/12/3
f 95/34/72 42/34/72 41/33/72
f 41/33/73 94/48/73 93/37/73
f 96/38/28 95/34/28 41/33/28
f 30/16/39 53/39/39 71/39/39
f 77/35/24 97/49/24 96/38/24
f 93/40/24 92/53/24 76/32/24
f 75/26/74 77/35/74 96/38/74
f 93/40/75 76/32/75 74/54/75
f 72/55/30 75/26/30 96/38/30
f 73/30/24 72/55/24 96/38/24
f 74/54/30 71/28/30 70/27/30
f 93/40/24 74/54/24 70/27/24
f 70/27/30 73/30/30 96/38/30
f 38/30/40 37/29/40 72/29/40
f 30/16/76 74/16/76 76/32/76
f 38/30/28 73/30/28 70/27/28
f 31/26/77 43/24/77 77/24/77
f 77/35/78 43/35/78 42/36/78
f 42/36/79 95/36/79 97/41/79
f 31/26/44 75/26/44 72/29/44
f 84/44/30 85/21/30 86/3/30
f 88/45/45 89/2/45 90/1/45
f 2/4/3 1/10/3 78/10/3
f 78/10/31 80/56/31 88/45/31
f 2/4/80 78/10/80 88/45/80
f 2/4/81 88/45/81 91/46/81
f 24/7/3 3/7/3 2/4/3
f 94/33/82 41/33/82 40/32/82
f 40/32/51 76/32/51 92/47/51
